<svg xmlns="http://www.w3.org/2000/svg" width="16" height="16" viewBox="0 0 296 296"><rect width="296" height="296" fill="#FF7AAC" rx="30" ry="30"/><path fill="#121117" fill-rule="evenodd" d="m209.165 91.413-83.53-51.06c-26.9-16.44-61.43 2.92-61.43 34.45v143.62c0 28.66 16.84 43.46 38.47 43.46 20.29 0 36.9-15.71 38.36-35.62 19.83-2.08 36.19-18.83 35.29-41.52l36.4-22.25c12.88-7.87 19.32-21.16 19.32-34.45 0-13.29-4.52-26.44-22.88-36.63zm-106.49 147.59c-8.61 0-15.58-6.98-15.58-15.58s6.97-15.59 15.58-15.59 15.59 6.98 15.59 15.59-6.98 15.58-15.59 15.58zm50.77-51.97c0 5.88-3.79 16.56-17.81 16.56a38.839 38.839 0 0 0-5.63-7.24 39.338 39.338 0 0 0-7.19-5.71 38.25 38.25 0 0 0-20.14-5.69c-5.09 0-9.94.99-14.38 2.78-.39.16-.83.34-1.21.51v-34.45c0-9.15 7.41-16.56 16.56-16.56h33.24c9.15 0 16.56 7.41 16.56 16.56zm47.35-44.06-24.47 14.96v-4.14c0-21.78-17.66-39.44-39.44-39.44h-33.24c-5.91 0-11.52 1.3-16.56 3.64v-43.19c0-13.66 14.96-22.06 26.62-14.93l87.09 53.24c11.16 6.82 11.16 23.04 0 29.86z"/></svg>
