<svg width="130" viewBox="0 0 775 210" fill="none" xmlns="http://www.w3.org/2000/svg" role="img" focusable="false" aria-label="Preply"><g data-name="logo-rebrand" fill="#121117"><g data-name="preply" fill-rule="evenodd" clip-rule="evenodd"><path d="M100.042 56.317c-4.18-6.861-9.903-12.24-17.194-16.134-7.28-3.895-15.638-5.854-25.02-5.854H0v138.654h32.378V125.44h25.44c9.403 0 17.739-1.981 25.019-5.944 7.28-3.952 13.014-9.398 17.194-16.338 4.168-6.94 6.246-14.764 6.246-23.471s-2.09-16.508-6.246-23.37h.011zm-28.12 31.091c-1.328 2.254-3.213 3.997-5.655 5.254-2.442 1.245-5.27 1.88-8.438 1.88H32.4V65.023h25.428c3.18 0 5.996.634 8.438 1.88 2.453 1.257 4.338 3.011 5.656 5.253 1.328 2.253 1.987 4.756 1.987 7.53s-.67 5.48-1.987 7.721zM194.497 73.946c3.895 4.778 6.609 11.232 8.142 19.327l-30.027 10.632c-.579-2.831-1.624-5.072-3.146-6.68-2.317-2.446-4.997-3.669-8.438-3.669-3.441 0-6.519 1.167-9.233 3.465-2.726 2.31-4.804 5.582-6.258 9.805-1.453 4.223-2.18 9.047-2.18 14.459v51.698h-30.8V66.021h27.415v18.421c2.249-4.36 4.941-8.05 8.052-11.096 3.112-3.034 6.712-5.378 10.823-7.031 4.1-1.653 8.473-2.48 13.118-2.48 9.539 0 17.058 3.363 22.554 10.1l-.022.011zM423.496 91.382c-4.566-8.446-10.801-15.149-18.682-20.108-7.882-4.948-16.593-7.427-26.121-7.427-9.528 0-17.819 2.083-24.837 6.238a40.292 40.292 0 00-10.528 9.024V66.021h-27.415v144.303h30.799v-46.716c.239.226.466.464.693.679 3.907 3.567 8.506 6.273 13.81 8.129 5.292 1.835 11.118 2.774 17.489 2.774 9.665 0 18.433-2.479 26.325-7.427 7.882-4.948 14.072-11.685 18.58-20.21 4.498-8.515 6.746-17.867 6.746-28.034 0-10.168-2.283-19.667-6.848-28.125l-.011-.012zm-27.813 41.497c-2.317 4.019-5.463 7.224-9.438 9.601-3.963 2.367-8.336 3.567-13.117 3.567-5.031 0-9.528-1.155-13.503-3.465-3.975-2.31-7.121-5.469-9.438-9.499-2.316-4.031-3.475-8.617-3.475-13.768 0-4.88 1.125-9.33 3.373-13.372 2.26-4.031 5.372-7.201 9.336-9.5 3.974-2.31 8.483-3.464 13.503-3.464 5.019 0 9.335 1.166 13.321 3.465 3.964 2.31 7.121 5.514 9.426 9.601 2.317 4.099 3.476 8.582 3.476 13.462 0 4.88-1.17 9.352-3.476 13.372h.012zM469.013 160.505c.466 5.152 1.284 9.319 2.488 12.478h-33.98V26.007h30.8v116.066c0 7.133.227 13.269.692 18.421v.011zM555.359 66.01h32.98L541.05 179.118c-4.1 9.896-9.506 17.595-16.195 23.075s-15.593 8.22-26.723 8.22c-4.497 0-8.869-.487-13.117-1.483-4.236-.996-7.882-2.208-10.925-3.669l9.335-29.313c2.783 1.449 5.463 2.57 8.052 3.363 2.578.792 5.122 1.189 7.643 1.189 3.578 0 6.462-.997 8.643-2.978 2.18-1.982 4.145-4.824 5.86-8.515l2.044-4.529-41.18-98.459h32.98l23.85 62.941 24.042-62.94v-.012zM307.622 114.763c0-9.511-2.317-18.16-6.962-25.95-4.645-7.802-10.993-13.904-19.068-18.32-8.075-4.438-17.081-6.646-27.018-6.646-9.937 0-19.477 2.423-27.813 7.235-8.347 4.812-14.911 11.492-19.67 20.006-4.77 8.515-7.154 18.059-7.154 28.623s2.373 20.425 7.154 28.815c4.77 8.39 11.493 14.934 20.159 19.611 8.676 4.687 18.636 7.042 29.902 7.042 13.912 0 25.235-3.295 33.968-9.918 6.576-4.959 11.437-11.345 14.548-19.135l-29.777-10.349c-.772 3.793-2.839 6.828-6.235 9.092-3.577 2.367-8.154 3.567-13.708 3.567-5.553 0-10.175-1.189-14.207-3.567-4.043-2.366-7.121-5.842-9.245-10.405-1.044-2.253-1.828-4.733-2.373-7.427h76.272c.795-4.224 1.204-8.311 1.204-12.274h.023zm-76.227-9.918c.284-.793.579-1.551.92-2.276 1.987-4.291 4.826-7.586 8.54-9.907 3.702-2.31 8.211-3.465 13.503-3.465 3.714 0 7.121.691 10.233 2.084 3.123 1.392 5.599 3.238 7.45 5.548s2.919 4.993 3.18 8.027h-43.837l.011-.011z"></path></g><path data-name="logomark" fill-rule="evenodd" clip-rule="evenodd" d="M753.752 52.819L676.173 5.537c-24.985-15.218-57.056 2.706-57.056 31.895v132.98c0 26.54 15.638 40.24 35.728 40.24 18.841 0 34.275-14.549 35.626-32.982 18.421-1.925 33.617-17.436 32.776-38.451l33.809-20.606C769.015 111.321 775 99.025 775 86.718c0-12.308-4.202-24.48-21.248-33.922v.023zm-98.907 136.66c-7.995 0-14.468-6.465-14.468-14.424 0-7.96 6.473-14.436 14.468-14.436s14.48 6.465 14.48 14.436c0 7.97-6.485 14.424-14.48 14.424zm47.154-48.12c0 5.446-3.521 15.331-16.547 15.331a36.206 36.206 0 00-5.224-6.703 37.266 37.266 0 00-6.678-5.288 35.629 35.629 0 00-18.705-5.265 35.813 35.813 0 00-14.48 3.046v-31.895c0-8.469 6.883-15.33 15.377-15.33h30.868c8.495 0 15.377 6.861 15.377 15.33v30.774h.012zm43.973-40.794l-22.725 13.847v-3.838c0-20.165-16.399-36.515-36.625-36.515h-30.868c-5.486 0-10.698 1.2-15.377 3.374v-39.99c0-12.647 13.889-20.425 24.723-13.825l80.884 49.298c10.368 6.318 10.368 21.331 0 27.649h-.012z"></path><g data-name="business"><path d="M0 228.473h26.268c11.346 0 20.397 7.541 20.397 17.459 0 6.85-4.781 13.587-10.153 15.274 6.462 1.189 12.243 8.832 12.243 16.372 0 11.9-9.358 20.335-20.897 20.335H0v-69.44zm24.871 28.963c5.974 0 11.743-3.476 11.743-9.726 0-5.457-4.77-9.918-10.743-9.918H9.949v19.644H24.87zm2.192 31.148c6.564 0 11.539-4.96 11.539-10.915 0-6.646-5.077-10.915-11.448-10.915H9.937v21.818h17.115l.011.012zM55.42 274.895v-30.152h9.552v29.563c0 9.126 5.974 15.568 14.628 15.568 9.153 0 15.127-6.25 15.524-18.851v-26.291h9.654v53.17h-8.654v-9.522c-3.986 6.442-10.642 10.609-18.603 10.609-13.128 0-22.089-10.122-22.089-24.106l-.011.012zM110.74 281.835l10.346-.894c.897 6.046 6.065 9.522 12.936 9.522 6.462 0 10.153-3.08 10.153-7.439 0-3.963-2.385-6.25-6.962-7.337l-10.641-2.581c-6.86-1.687-13.129-4.563-13.129-13.485 0-9.624 7.961-15.976 19.205-15.976 11.243 0 18.5 5.356 20.499 14.583l-9.756 1.291c-1.09-4.665-4.872-7.337-10.641-7.337-5.77 0-9.052 2.978-9.052 6.352 0 3.872 3.385 5.752 7.462 6.748l11.141 2.774c7.359 1.789 12.242 5.254 12.242 13.496 0 10.609-7.961 17.459-20.998 17.459-13.038 0-21.397-6.94-22.782-17.164l-.023-.012zM160.79 223.514h10.641v11.005H160.79v-11.005zm.499 21.229h9.654v53.17h-9.654v-53.17zM206.455 252.771c-9.153 0-15.127 6.25-15.524 18.852v26.29h-9.654v-53.17h8.654v9.624c3.975-6.544 10.642-10.71 18.603-10.71 13.14 0 22.089 10.122 22.089 24.207v30.06h-9.551v-29.46c0-9.126-5.974-15.67-14.628-15.67l.011-.023zM236.698 271.328c0-15.772 11.845-27.671 26.961-27.671 15.116 0 25.576 11.005 25.576 25.294 0 1.188-.102 3.374-.295 4.359h-42.679c.999 10.314 8.358 16.768 18.012 16.768 8.154 0 13.934-3.566 15.32-10.02l9.846.996c-2.782 11.311-11.538 17.957-24.871 17.957-16.025 0-27.858-11.503-27.858-27.671l-.012-.012zm42.191-6.25c-.295-7.246-6.462-12.794-15.321-12.794-8.858 0-14.729 5.061-16.717 12.794h32.038zM293.812 281.835l10.346-.894c.897 6.046 6.065 9.522 12.935 9.522 6.462 0 10.153-3.08 10.153-7.439 0-3.963-2.384-6.25-6.961-7.337l-10.642-2.581c-6.859-1.687-13.128-4.563-13.128-13.485 0-9.624 7.961-15.976 19.204-15.976 11.244 0 18.501 5.356 20.499 14.583l-9.755 1.291c-1.09-4.665-4.872-7.337-10.641-7.337-5.77 0-9.052 2.978-9.052 6.352 0 3.872 3.384 5.752 7.462 6.748l11.141 2.774c7.359 1.789 12.242 5.254 12.242 13.496 0 10.609-7.961 17.459-20.998 17.459-13.038 0-21.397-6.94-22.782-17.164l-.023-.012zM341.965 281.835l10.346-.894c.897 6.046 6.064 9.522 12.935 9.522 6.462 0 10.153-3.08 10.153-7.439 0-3.963-2.385-6.25-6.961-7.337l-10.642-2.581c-6.859-1.687-13.128-4.563-13.128-13.485 0-9.624 7.961-15.976 19.204-15.976s18.5 5.356 20.499 14.583l-9.755 1.291c-1.091-4.665-4.872-7.337-10.642-7.337-5.769 0-9.051 2.978-9.051 6.352 0 3.872 3.384 5.752 7.461 6.748l11.141 2.774c7.36 1.789 12.243 5.254 12.243 13.496 0 10.609-7.961 17.459-20.999 17.459-13.037 0-21.396-6.94-22.781-17.164l-.023-.012z"></path></g></g></svg>